<svg width="810" height="80" viewBox="0 0 810 80" fill="none" xmlns="http://www.w3.org/2000/svg">
<path fill-rule="evenodd" clip-rule="evenodd" d="M65.3649 42.2071C67.5123 61.2247 82.2845 73.9056 103.111 73.9056C125.671 73.9056 141.127 59.0256 141.127 37.3295C141.127 15.6335 125.671 0.657532 103.111 0.657532C80.5508 0.657532 65.0948 15.6335 65.0948 37.3295C65.0948 37.7268 65.1 38.1218 65.1103 38.5145H54.2158C54.0288 37.6961 53.7189 36.907 53.2935 36.175C52.5518 34.8982 51.4853 33.8405 50.2025 33.1091C48.9196 32.3778 47.4661 31.999 45.9895 32.0111C44.513 32.0233 43.0659 32.4258 41.7952 33.1781L35.4454 26.8283C36.3951 25.2338 36.786 23.3682 36.5562 21.5266C36.3264 19.6849 35.4892 17.9725 34.1768 16.6602C32.8645 15.3478 31.1521 14.5106 29.3104 14.2808C27.4688 14.051 25.6032 14.4419 24.0087 15.3915L19.0788 10.4617C19.7181 9.12311 19.8636 7.60162 19.4896 6.16608C19.1156 4.73059 18.2462 3.47351 17.0349 2.61707C15.8237 1.76062 14.3487 1.35992 12.8706 1.48578C11.3926 1.61169 10.0066 2.25604 8.95766 3.30499C7.90871 4.35388 7.26436 5.73993 7.13845 7.21796C7.01259 8.69604 7.41329 10.1711 8.26973 11.3823C9.12618 12.5935 10.3833 13.463 11.8188 13.837C13.2543 14.2109 14.7758 14.0654 16.1144 13.4261L21.0442 18.356C20.3608 19.5178 19.9692 20.8279 19.9029 22.1742L12.4237 24.6672C12.3518 24.567 12.2769 24.469 12.1993 24.3733C12.1162 24.2709 12.0299 24.1713 11.9405 24.0744C10.9145 23.0402 9.56246 22.3927 8.11354 22.2416C6.66469 22.0904 5.20809 22.4449 3.99074 23.245C2.77339 24.0451 1.8702 25.2416 1.43416 26.6315C0.998187 28.0215 1.05629 29.5195 1.59859 30.8715C2.14089 32.2236 3.13405 33.3465 4.40975 34.0499C5.68538 34.7534 7.16506 34.994 8.59786 34.7311C10.0307 34.4682 11.3285 33.7179 12.2714 32.6074C13.2142 31.4969 13.744 30.0946 13.771 28.6381L20.77 26.3051C21.1605 27.1234 21.6828 27.872 22.316 28.521C23.6308 29.8279 25.3419 30.6619 27.1814 30.892C29.0209 31.1221 30.8848 30.7355 32.481 29.7927L38.8308 36.1426C38.0775 37.4272 37.6803 38.8895 37.6803 40.3787C37.6803 41.868 38.0775 43.3303 38.8308 44.6149L32.481 50.9647C31.551 50.4007 30.5188 50.0261 29.4435 49.8624C28.3682 49.6986 27.2713 49.7491 26.2156 50.0108C25.1599 50.2725 24.1664 50.7404 23.2921 51.3873C22.4179 52.0344 21.6801 52.8478 21.1213 53.7809L13.7384 51.7665C13.6304 50.2619 12.9929 48.8441 11.939 47.7647C10.8851 46.6853 9.48299 46.014 7.98128 45.8701C6.47963 45.726 4.97548 46.1185 3.73567 46.978C2.49587 47.8374 1.60054 49.1082 1.20845 50.5649C0.816424 52.0217 0.95296 53.5701 1.59395 54.9358C2.23494 56.3014 3.33889 57.3958 4.71004 58.025C6.08113 58.6541 7.63076 58.7773 9.08406 58.3726C10.5373 57.968 11.8003 57.0617 12.649 55.8145L19.9014 57.7933C19.8285 59.4075 20.2255 61.0083 21.0442 62.4014L16.1144 67.3313C15.0748 66.8378 13.9195 66.6395 12.7749 66.7582C11.6301 66.8769 10.5401 67.3079 9.62386 68.0042C8.70754 68.7004 8.00026 69.6351 7.5793 70.7062C7.15834 71.7772 7.03987 72.9434 7.23677 74.0772C7.43373 75.2111 7.93856 76.2689 8.69606 77.1353C9.45363 78.0016 10.4346 78.643 11.5321 78.9895C12.6295 79.336 13.801 79.3741 14.9187 79.0998C16.0363 78.8255 17.057 78.2493 17.8693 77.4341C18.7843 76.5153 19.392 75.3355 19.6086 74.0571C19.8252 72.7787 19.6401 71.4646 19.0788 70.2957L24.0087 65.3659C25.6032 66.3156 27.4688 66.7064 29.3104 66.4766C31.1521 66.2469 32.8645 65.4096 34.1768 64.0973C35.4892 62.785 36.3264 61.0725 36.5562 59.2309C36.786 57.3893 36.3951 55.5236 35.4455 53.9291L41.7952 47.5793C43.0659 48.3316 44.513 48.7342 45.9895 48.7463C47.4661 48.7585 48.9196 48.3796 50.2025 47.6483C51.4853 46.917 52.5518 45.8593 53.2935 44.5825C53.7251 43.8398 54.0378 43.0383 54.2239 42.2071H65.3649ZM82.2788 37.3295C82.2788 24.3696 90.8228 15.3455 103.111 15.3455C115.399 15.3455 123.943 24.3696 123.943 37.3295C123.943 50.1935 115.399 59.2175 103.111 59.2175C90.8228 59.2175 82.2788 50.1935 82.2788 37.3295ZM25.2804 25.5566C24.6941 24.9703 24.2948 24.2233 24.1331 23.41C23.9713 22.5968 24.0543 21.7538 24.3716 20.9879C24.6889 20.2218 25.2263 19.567 25.9157 19.1064C26.6051 18.6457 27.4157 18.3998 28.2448 18.3998C29.074 18.3998 29.8845 18.6457 30.574 19.1064C31.2634 19.567 31.8007 20.2218 32.1181 20.9879C32.4353 21.7538 32.5184 22.5968 32.3566 23.41C32.1948 24.2233 31.7955 24.9703 31.2092 25.5566C30.4225 26.3418 29.3563 26.7828 28.2448 26.7828C27.1333 26.7828 26.0672 26.3418 25.2804 25.5566ZM43.067 37.4143C43.6533 36.828 44.4003 36.4287 45.2135 36.267C46.0268 36.1052 46.8697 36.1882 47.6357 36.5055C48.4018 36.8228 49.0565 37.3602 49.5172 38.0496C49.9779 38.739 50.2237 39.5496 50.2237 40.3787C50.2237 41.2079 49.9779 42.0184 49.5172 42.7079C49.0565 43.3973 48.4018 43.9346 47.6357 44.252C46.8697 44.5692 46.0268 44.6523 45.2135 44.4905C44.4003 44.3287 43.6533 43.9294 43.067 43.3431C42.2818 42.5564 41.8408 41.4902 41.8408 40.3787C41.8408 39.2672 42.2818 38.201 43.067 37.4143ZM31.2092 55.2009C31.7955 55.7872 32.1948 56.5342 32.3566 57.3474C32.5184 58.1606 32.4353 59.0036 32.1181 59.7696C31.8007 60.5356 31.2634 61.1904 30.574 61.6511C29.8845 62.1118 29.074 62.3576 28.2448 62.3576C27.4157 62.3576 26.6051 62.1118 25.9157 61.6511C25.2263 61.1904 24.6889 60.5356 24.3716 59.7696C24.0543 59.0036 23.9713 58.1606 24.1331 57.3474C24.2948 56.5342 24.6941 55.7872 25.2804 55.2009C26.0672 54.4156 27.1333 53.9747 28.2448 53.9747C29.3563 53.9747 30.4225 54.4156 31.2092 55.2009Z" fill="#EFEEEE"/>
<path d="M169.166 73.4255C175.598 73.4255 180.782 70.0656 184.334 64.7856V71.5056H199.118V22.2576H183.854V49.8096C183.854 55.7615 180.014 59.9855 174.734 59.9855C169.357 59.9855 165.71 55.6655 165.71 49.5215V22.2576H150.446V53.1696C150.446 64.8815 158.318 73.4255 169.166 73.4255Z" fill="#EFEEEE"/>
<path d="M206.976 33.7775H213.792V55.0895C213.792 66.1296 220.32 73.4255 230.016 73.4255C233.376 73.4255 237.408 72.8495 240.384 71.8895V59.3135C238.752 59.7936 236.736 59.9855 235.2 59.9855C231.456 59.9855 229.056 57.2975 229.056 53.2656V33.7775H240V22.2576H229.056V11.6976H213.792V22.2576H206.976V33.7775Z" fill="#EFEEEE"/>
<path d="M275.203 73.9056C293.059 73.9056 305.443 64.1135 305.347 50.0015C305.347 33.2666 290.465 31.3802 278.113 29.8143C269.349 28.7034 261.859 27.7539 261.859 21.7775C261.859 16.8815 267.235 13.4255 274.819 13.4255C282.403 13.4255 288.163 16.8815 288.739 21.8735H302.467V14.3856C299.683 6.32153 288.163 0.657532 274.339 0.657532C257.635 0.657532 246.115 9.96954 246.115 23.4095C246.115 40.2786 260.969 42.2286 273.333 43.8517C282.149 45.009 289.699 46.0002 289.699 52.1135C289.699 57.3936 283.843 61.2336 275.779 61.1376C267.907 61.1376 261.859 57.1055 261.187 51.4415H247.363V58.9296C250.531 67.7615 261.955 73.9056 275.203 73.9056Z" fill="#EFEEEE"/>
<path d="M329.969 22.2576H315.281V71.5056H330.545V43.5696C330.545 37.7136 333.905 33.7775 339.089 33.7775C344.081 33.7775 347.345 37.7136 347.345 43.5696V71.5056H362.609V43.5696C362.609 37.8096 366.161 33.7775 371.441 33.7775C376.625 33.9695 380.081 38.0975 380.081 43.5696V71.5056H395.345V40.3055C395.345 28.5936 387.665 20.4335 376.529 20.4335C369.809 20.4335 363.185 23.6976 360.113 29.0735C357.233 23.6976 351.473 20.3375 344.369 20.3375C338.417 20.3375 332.945 23.2175 329.969 28.2095V22.2576Z" fill="#EFEEEE"/>
<path fill-rule="evenodd" clip-rule="evenodd" d="M431.729 20.3375C415.697 20.3375 404.369 31.4736 404.369 46.9296C404.369 62.5776 414.257 73.4255 428.561 73.4255C435.377 73.4255 441.233 70.6415 445.265 65.6495V71.5056H459.281V46.9296C459.281 31.4736 447.761 20.3375 431.729 20.3375ZM431.825 33.7775C438.929 33.7775 444.017 39.2496 444.017 46.9296C444.017 54.5135 438.929 59.9855 431.825 59.9855C424.721 59.9855 419.633 54.5135 419.633 46.9296C419.633 39.2496 424.721 33.7775 431.825 33.7775Z" fill="#EFEEEE"/>
<path d="M498.089 20.4335C492.521 20.4335 487.721 23.6016 484.937 28.5936V22.2576H470.249V71.5056H485.513V45.4896C485.513 38.5776 488.969 33.7775 493.865 33.7775C496.841 33.7775 499.625 35.5056 500.489 38.0015H507.977V24.1776C506.057 21.9695 502.025 20.4335 498.089 20.4335Z" fill="#EFEEEE"/>
<path d="M511.757 33.7775H518.573V55.0895C518.573 66.1296 525.101 73.4255 534.797 73.4255C538.157 73.4255 542.189 72.8495 545.165 71.8895V59.3135C543.533 59.7936 541.517 59.9855 539.981 59.9855C536.237 59.9855 533.837 57.2975 533.837 53.2656V33.7775H544.781V22.2576H533.837V11.6976H518.573V22.2576H511.757V33.7775Z" fill="#EFEEEE"/>
<path fill-rule="evenodd" clip-rule="evenodd" d="M649.373 37.3295C649.373 16.7855 633.629 3.05756 610.013 3.05756H583.709V71.5056H610.013C633.629 71.5056 649.373 57.8735 649.373 37.3295ZM610.013 16.3055C623.357 16.3055 632.285 24.4656 632.285 37.3295C632.285 50.0975 623.357 58.2576 610.013 58.2576H600.413V16.3055H610.013Z" fill="#EFEEEE"/>
<path fill-rule="evenodd" clip-rule="evenodd" d="M684.573 20.3375C668.541 20.3375 657.213 31.4736 657.213 46.9296C657.213 62.5776 667.101 73.4255 681.405 73.4255C688.221 73.4255 694.077 70.6415 698.109 65.6495V71.5056H712.125V46.9296C712.125 31.4736 700.605 20.3375 684.573 20.3375ZM684.669 33.7775C691.773 33.7775 696.861 39.2496 696.861 46.9296C696.861 54.5135 691.773 59.9855 684.669 59.9855C677.565 59.9855 672.477 54.5135 672.477 46.9296C672.477 39.2496 677.565 33.7775 684.669 33.7775Z" fill="#EFEEEE"/>
<path d="M716.695 33.7775H723.511V55.0895C723.511 66.1296 730.039 73.4255 739.735 73.4255C743.095 73.4255 747.127 72.8495 750.103 71.8895V59.3135C748.471 59.7936 746.455 59.9855 744.919 59.9855C741.175 59.9855 738.775 57.2975 738.775 53.2656V33.7775H749.719V22.2576H738.775V11.6976H723.511V22.2576H716.695V33.7775Z" fill="#EFEEEE"/>
<path fill-rule="evenodd" clip-rule="evenodd" d="M782.448 20.3375C766.416 20.3375 755.088 31.4736 755.088 46.9296C755.088 62.5776 764.976 73.4255 779.28 73.4255C786.096 73.4255 791.952 70.6415 795.984 65.6495V71.5056H810V46.9296C810 31.4736 798.48 20.3375 782.448 20.3375ZM782.544 33.7775C789.648 33.7775 794.736 39.2496 794.736 46.9296C794.736 54.5135 789.648 59.9855 782.544 59.9855C775.44 59.9855 770.352 54.5135 770.352 46.9296C770.352 39.2496 775.44 33.7775 782.544 33.7775Z" fill="#EFEEEE"/>
</svg>
